<svg xmlns="http://www.w3.org/2000/svg" width="437.91971mm" height="95.134712mm" viewBox="0 0 437.91971 95.134712"><path d="M-65.051 105.632v12.676h12.192v69.036h-14.058v12.607h47.628v-12.673H-32.93v-28.83h8.063l-.139 5.539h10.102v-24.54h-10.68v6.28l-7.207.106V118.03H329.01v-12.413zm77.511 23.635h29.564c6.267 1.304 11.193 4.21 14.57 11.334v29.205h-38.7v17.438c.647 1.89 1.659 3.49 5.215 3.051h9.133q3.581.012 4.555-4.336v-8.743h20.227v9.81q-2.932 11.225-17.166 12.86H13.982q-15.541-2.29-16.304-15.911v-44.028q3.914-9.265 14.782-10.68zm9.348 9.154 11.758.052q3.047 1.53 2.811 4.524v19.182H18.112v-19.735c-.185-1.909 1.7-3.857 3.696-4.023m43.594-9.191 26.562-.045v10.475l8.74-5.836c9.671-7.9 21.197-6.368 25.148 5.32v27.81h-20.554v-25.151q-1.815-1.694-13.302 11.122v34.567h7.023v11.86H66.128V187.26h6.532v-46.898h-7.258zm68.978 0 26.561-.045v10.475l8.74-5.836c9.672-7.9 21.198-6.368 25.148 5.32v27.81h-20.553v-25.151q-1.816-1.694-13.303 11.122v34.567h7.024v11.86h-32.892V187.26h6.533v-46.898h-7.258zm134.784 0 26.562-.045v10.475l8.74-5.836c9.671-7.9 21.198-6.368 25.148 5.32v27.81H309.06v-25.151q-1.815-1.694-13.302 11.122v34.567h7.024v11.86H269.89V187.26h6.532v-46.898h-7.258zm66.91-.58v10.535l6.567.073v47.225h-6.567v12.051H370.6v-11.643l-7.03.052v-47.758h6.61v-10.542zm17.259-23.833c-9.733 0-17.67 2.953-17.67 6.575 0 3.62 7.938 6.575 17.67 6.575s17.67-2.954 17.67-6.575-7.938-6.575-17.67-6.575M200.878 150.84c-.549-18.492 10.82-21.369 18.08-22.19h19.314q15.82 1.027 18.492 15.202v43.123h4.931v12.765h-45.202c-9.21.02-14.87-7.845-15.204-13.542v-16.34c.08-6.21 7.13-12.122 16.021-11.622h18.908v-15.204q1.115-4.832-3.288-4.93h-8.218q-3.816-.31-3.683 4.109v8.629zm35.752 14.236v25.047h-10.46c-3.283.26-4.99-.594-5.121-2.958v-18.933q0-2.37 3.156-3.156z" class="fil0" style="clip-rule:evenodd;fill:#fff;fill-rule:evenodd;stroke-width:.988001;image-rendering:optimizeQuality;shape-rendering:geometricPrecision;text-rendering:geometricPrecision" transform="translate(66.917 -104.817)"/></svg>